<?xml version="1.0" standalone="no"?>
<!DOCTYPE svg PUBLIC "-//W3C//DTD SVG 20010904//EN"
 "http://www.w3.org/TR/2001/REC-SVG-20010904/DTD/svg10.dtd">
<svg version="1.0" xmlns="http://www.w3.org/2000/svg"
 width="1600.000000pt" height="1600.000000pt" viewBox="0 0 1600.000000 1600.000000"
 preserveAspectRatio="xMidYMid meet">
<metadata>
Created by potrace 1.16, written by Peter Selinger 2001-2019
</metadata>
<g transform="translate(0.000000,1600.000000) scale(0.100000,-0.100000)"
fill="#000000" stroke="none">
<path d="M12711 15042 c-58 -102 -195 -285 -315 -422 -99 -113 -360 -362 -446
-426 -435 -324 -766 -471 -1675 -744 -483 -145 -821 -267 -1014 -365 -152 -77
-378 -246 -530 -396 -321 -319 -528 -663 -618 -1027 -22 -90 -27 -131 -27
-252 -1 -162 11 -225 52 -265 13 -14 28 -25 32 -25 4 0 29 37 54 83 123 218
330 438 537 570 57 37 307 164 414 212 228 101 640 239 1226 411 430 125 939
350 1182 521 29 20 71 50 95 66 362 245 835 804 940 1112 42 120 107 390 131
540 18 113 51 400 51 444 0 36 -3 41 -22 41 -18 0 -33 -17 -67 -78z"/>
<path d="M12732 13649 c-175 -321 -575 -751 -922 -991 -298 -206 -760 -415
-1220 -552 -410 -122 -524 -157 -725 -223 -476 -156 -644 -235 -895 -422 -101
-76 -333 -293 -416 -391 -331 -390 -522 -884 -474 -1222 12 -88 34 -139 69
-157 17 -9 23 -5 47 37 192 332 406 535 741 704 345 176 541 248 1253 463 549
166 763 245 1050 391 263 134 500 292 659 440 40 38 79 72 86 76 11 7 188 196
245 264 162 189 291 376 344 495 52 120 110 329 155 559 29 150 74 535 64 553
-10 18 -45 5 -61 -24z"/>
<path d="M12777 12138 c-8 -13 -27 -45 -43 -71 -85 -141 -320 -433 -464 -578
-246 -248 -520 -440 -865 -609 -265 -129 -510 -218 -1020 -370 -634 -190
-1024 -335 -1210 -452 -166 -105 -426 -332 -579 -507 -232 -263 -419 -633
-471 -930 -19 -107 -19 -290 0 -360 14 -53 47 -101 70 -101 7 0 34 37 60 83
125 216 323 428 515 553 76 49 308 171 395 207 33 14 98 42 145 62 156 67 649
228 1169 381 317 93 714 260 966 405 362 208 657 471 941 839 181 235 247 367
315 635 57 225 72 307 99 520 28 227 30 308 8 313 -9 2 -23 -7 -31 -20z"/>
<path d="M7933 11972 c-39 -25 -257 -438 -373 -707 -189 -439 -459 -1186 -545
-1505 -54 -204 -99 -683 -111 -1180 -15 -618 38 -1067 227 -1920 124 -566 166
-789 193 -1040 12 -112 29 -322 28 -340 -2 -18 -31 -2 -103 58 -116 95 -183
143 -286 205 -316 191 -685 281 -1158 281 -177 -1 -249 -5 -365 -23 -668 -102
-1279 -432 -1731 -936 -124 -138 -264 -349 -345 -520 -55 -117 -130 -335 -164
-475 -83 -345 -62 -767 57 -1143 57 -179 162 -429 229 -539 209 -347 673 -755
1104 -969 250 -125 551 -212 865 -250 162 -20 596 -18 755 4 359 50 592 120
875 262 431 216 783 509 1033 858 230 322 268 398 423 846 68 194 119 459 139
722 16 199 7 764 -14 934 -59 479 -172 893 -436 1595 -414 1103 -513 1497
-595 2365 -28 300 -35 470 -36 885 -1 378 1 440 25 695 74 782 151 1233 287
1684 40 134 45 167 22 153z"/>
</g>
</svg>
